<svg xmlns="http://www.w3.org/2000/svg" viewBox="0 0 100 100" width="100" height="100">
  <defs>
    <linearGradient id="metal" x1="0%" y1="0%" x2="0%" y2="100%">
      <stop offset="0%" style="stop-color:#635143;stop-opacity:1" />
      <stop offset="100%" style="stop-color:#2f241d;stop-opacity:1" />
    </linearGradient>
    <linearGradient id="blade" x1="0%" y1="0%" x2="100%" y2="0%">
      <stop offset="0%" style="stop-color:#9a7452;stop-opacity:1" />
      <stop offset="100%" style="stop-color:#6d4d35;stop-opacity:1" />
    </linearGradient>
  </defs>

  <ellipse cx="50" cy="14" rx="15" ry="5" fill="#49362a" />
  <rect x="44" y="14" width="12" height="16" rx="4" fill="url(#metal)" />
  <circle cx="50" cy="36" r="12" fill="url(#metal)" />
  <circle cx="50" cy="36" r="6" fill="#8a694f" />

  <path d="M50 33 C62 23 83 20 93 23 C81 34 67 41 53 43 Z" fill="url(#blade)" />
  <path d="M53 36 C63 45 80 61 83 71 C69 66 56 57 47 44 Z" fill="url(#blade)" />
  <path d="M50 39 C38 49 17 52 7 49 C19 38 33 31 47 29 Z" fill="url(#blade)" />
  <path d="M47 36 C37 27 20 11 17 1 C31 6 44 15 53 28 Z" fill="url(#blade)" />

  <circle cx="50" cy="36" r="4" fill="#241d18" />
</svg>
