<svg xmlns="http://www.w3.org/2000/svg" viewBox="0 0 160 120">
  <defs>
    <linearGradient id="bg" x1="0" x2="0" y1="0" y2="1">
      <stop offset="0" stop-color="#252c39"/>
      <stop offset="1" stop-color="#151922"/>
    </linearGradient>
  </defs>
  <rect width="160" height="120" rx="20" fill="url(#bg)"/>
  <ellipse cx="82" cy="98" rx="48" ry="12" fill="#0d1118" opacity=".55"/>
  <rect x="38" y="58" width="84" height="10" rx="3" fill="#b98452"/>
  <rect x="44" y="66" width="8" height="28" rx="2" fill="#8f5f38"/>
  <rect x="108" y="66" width="8" height="28" rx="2" fill="#8f5f38"/>
  <rect x="69" y="35" width="28" height="18" rx="3" fill="#2f3848"/>
  <rect x="72" y="38" width="22" height="12" rx="2" fill="#87e0d2"/>
  <rect x="81" y="53" width="4" height="7" rx="1" fill="#606875"/>
  <rect x="90" y="60" width="16" height="4" rx="2" fill="#202630"/>
  <rect x="55" y="61" width="18" height="4" rx="2" fill="#e8dcc5"/>
  <rect x="120" y="49" width="12" height="16" rx="2" fill="#f3d8a0"/>
  <rect x="123" y="45" width="6" height="5" rx="1" fill="#7f5a33"/>
</svg>
